<mxfile host="Electron" modified="2024-07-25T03:14:26.918Z" agent="Mozilla/5.0 (X11; Linux x86_64) AppleWebKit/537.36 (KHTML, like Gecko) draw.io/24.6.1 Chrome/124.0.6367.207 Electron/30.0.6 Safari/537.36" etag="oIMAur9WO2tQhPEoq5Ue" version="24.6.1" type="device">
  <diagram name="第 1 页" id="sx0G6owgXNxW4S0cwFw4">
    <mxGraphModel dx="576" dy="377" grid="1" gridSize="10" guides="1" tooltips="1" connect="1" arrows="1" fold="1" page="1" pageScale="1" pageWidth="827" pageHeight="1169" math="0" shadow="0">
      <root>
        <mxCell id="0" />
        <mxCell id="1" parent="0" />
        <mxCell id="d_CwTEUXK_ZBdBN9Qm_b-1" value="AND" style="verticalLabelPosition=middle;shadow=0;dashed=0;align=center;html=1;verticalAlign=middle;shape=mxgraph.electrical.logic_gates.logic_gate;operation=and;labelPosition=center;" parent="1" vertex="1">
          <mxGeometry x="400" y="440" width="120" height="80" as="geometry" />
        </mxCell>
        <mxCell id="d_CwTEUXK_ZBdBN9Qm_b-17" style="edgeStyle=orthogonalEdgeStyle;rounded=0;orthogonalLoop=1;jettySize=auto;html=1;exitX=0;exitY=0.25;exitDx=0;exitDy=0;exitPerimeter=0;endArrow=none;endFill=0;" parent="1" source="d_CwTEUXK_ZBdBN9Qm_b-3" edge="1">
          <mxGeometry relative="1" as="geometry">
            <mxPoint x="380" y="500" as="targetPoint" />
          </mxGeometry>
        </mxCell>
        <mxCell id="d_CwTEUXK_ZBdBN9Qm_b-18" style="edgeStyle=orthogonalEdgeStyle;rounded=0;orthogonalLoop=1;jettySize=auto;html=1;exitX=0;exitY=0.75;exitDx=0;exitDy=0;exitPerimeter=0;endArrow=none;endFill=0;" parent="1" source="d_CwTEUXK_ZBdBN9Qm_b-3" edge="1">
          <mxGeometry relative="1" as="geometry">
            <mxPoint x="360" y="460" as="targetPoint" />
          </mxGeometry>
        </mxCell>
        <mxCell id="d_CwTEUXK_ZBdBN9Qm_b-3" value="XOR" style="verticalLabelPosition=middle;shadow=0;dashed=0;align=center;html=1;verticalAlign=middle;shape=mxgraph.electrical.logic_gates.logic_gate;operation=xor;labelPosition=center;" parent="1" vertex="1">
          <mxGeometry x="400" y="560" width="120" height="80" as="geometry" />
        </mxCell>
        <mxCell id="d_CwTEUXK_ZBdBN9Qm_b-4" value="a" style="text;strokeColor=none;align=center;fillColor=none;html=1;verticalAlign=middle;whiteSpace=wrap;rounded=0;" parent="1" vertex="1">
          <mxGeometry x="320" y="455" width="10" height="10" as="geometry" />
        </mxCell>
        <mxCell id="d_CwTEUXK_ZBdBN9Qm_b-9" style="edgeStyle=orthogonalEdgeStyle;rounded=0;orthogonalLoop=1;jettySize=auto;html=1;entryX=0;entryY=0.25;entryDx=0;entryDy=0;entryPerimeter=0;endArrow=none;endFill=0;" parent="1" source="d_CwTEUXK_ZBdBN9Qm_b-4" target="d_CwTEUXK_ZBdBN9Qm_b-1" edge="1">
          <mxGeometry relative="1" as="geometry" />
        </mxCell>
        <mxCell id="d_CwTEUXK_ZBdBN9Qm_b-15" value="b" style="text;strokeColor=none;align=center;fillColor=none;html=1;verticalAlign=middle;whiteSpace=wrap;rounded=0;" parent="1" vertex="1">
          <mxGeometry x="320" y="495" width="10" height="10" as="geometry" />
        </mxCell>
        <mxCell id="d_CwTEUXK_ZBdBN9Qm_b-20" value="" style="ellipse;whiteSpace=wrap;html=1;aspect=fixed;" parent="1" vertex="1">
          <mxGeometry x="357.5" y="457.5" width="5" height="5" as="geometry" />
        </mxCell>
        <mxCell id="d_CwTEUXK_ZBdBN9Qm_b-25" style="edgeStyle=orthogonalEdgeStyle;rounded=0;orthogonalLoop=1;jettySize=auto;html=1;entryX=0;entryY=0.75;entryDx=0;entryDy=0;entryPerimeter=0;endArrow=none;endFill=0;" parent="1" source="d_CwTEUXK_ZBdBN9Qm_b-15" target="d_CwTEUXK_ZBdBN9Qm_b-1" edge="1">
          <mxGeometry relative="1" as="geometry" />
        </mxCell>
        <mxCell id="d_CwTEUXK_ZBdBN9Qm_b-27" value="" style="ellipse;whiteSpace=wrap;html=1;aspect=fixed;" parent="1" vertex="1">
          <mxGeometry x="377.5" y="497.5" width="5" height="5" as="geometry" />
        </mxCell>
        <mxCell id="d_CwTEUXK_ZBdBN9Qm_b-28" value="Sum" style="text;strokeColor=none;align=center;fillColor=none;html=1;verticalAlign=middle;whiteSpace=wrap;rounded=0;" parent="1" vertex="1">
          <mxGeometry x="520" y="595" width="30" height="10" as="geometry" />
        </mxCell>
        <mxCell id="d_CwTEUXK_ZBdBN9Qm_b-30" value="Carry" style="text;strokeColor=none;align=center;fillColor=none;html=1;verticalAlign=middle;whiteSpace=wrap;rounded=0;" parent="1" vertex="1">
          <mxGeometry x="520" y="475" width="40" height="10" as="geometry" />
        </mxCell>
      </root>
    </mxGraphModel>
  </diagram>
</mxfile>
